# xmcd
#
# Track frame offsets: 
#        150
#        14637
#        34407
#        50028
#        70903
#        113225
#        132128
#        159245
#        172376
#        203745
#
# Disc length: 4034 seconds
#
# Revision: 0
# Processed by: cddbd v1.5.2PL0 Copyright (c) Steve Scherf et al.
# Submitted via: ExactAudioCopy v1.3
#
DISCID=920fc00a
DTITLE=Last Call - The Debut Albunm
DYEAR=2001
DGENRE=Blues Rock
TTITLE0=Last Call
TTITLE1=Mary Had A Little Lamb
TTITLE2=The Sky Is Crying
TTITLE3=Tightrope
TTITLE4=Tin Pan Alley
TTITLE5=Feinde Greifen An
TTITLE6=Texas Flood
TTITLE7=Scuttle Buttin'
TTITLE8=Victor Ludorum
TTITLE9=Last Call Video
EXTD=
EXTT0=
EXTT1=
EXTT2=
EXTT3=
EXTT4=
EXTT5=
EXTT6=
EXTT7=
EXTT8=
EXTT9=
PLAYORDER=
